<svg xmlns="http://www.w3.org/2000/svg" width="512" height="5123" viewBox="0 0 512 512"><title>fill</title><rect x="0.0004" y="0.0073" width="512" height="512" fill="#f0f"/><path d="M80.2143,511.9927a31.4233,31.4233,0,0,1-22.2889-9.2171L9.217,454.0691a31.558,31.558,0,0,1,0-44.5774L162.7138,256,9.217,102.5083a31.5566,31.5566,0,0,1,0-44.577L57.9254,9.2249a31.5217,31.5217,0,0,1,44.5783.0005L256,162.7166,409.4963,9.2254a31.5577,31.5577,0,0,1,44.5788,0L502.783,57.9309a31.5583,31.5583,0,0,1,0,44.5769L349.2867,256,502.783,409.4917a31.5578,31.5578,0,0,1,0,44.5765l-48.7079,48.7074a31.56,31.56,0,0,1-44.5778,0L256,349.2839,102.5037,502.7756A31.4262,31.4262,0,0,1,80.2143,511.9927Z" transform="translate(0.0004 0.0073)" fill="#0fa"/></svg>