<svg xmlns="http://www.w3.org/2000/svg" width="512" height="512" viewBox="0 0 512 512"><title>stroke</title><rect width="512" height="512" fill="#f0f"/><path d="M335.1385,256,495.697,95.4415a21.52,21.52,0,0,0,0-30.4336L446.9921,16.303a21.52,21.52,0,0,0-30.4336,0L256,176.8615,95.4415,16.303a21.52,21.52,0,0,0-30.4336,0L16.303,65.0079a21.52,21.52,0,0,0,0,30.4336L176.8615,256,16.303,416.5585a21.52,21.52,0,0,0,0,30.4336L65.0079,495.697a21.52,21.52,0,0,0,30.4336,0L256,335.1385,416.5585,495.697a21.52,21.52,0,0,0,30.4336,0l48.7049-48.7049a21.52,21.52,0,0,0,0-30.4336Z" transform="translate(0 0)" fill="none" stroke="#0fa" stroke-linecap="round" stroke-linejoin="round" stroke-width="20"/></svg>