<svg xmlns="http://www.w3.org/2000/svg" width="512" height="512" viewBox="0 0 512 512"><title>fill</title><rect width="512" height="512" fill="#f0f"/><path d="M120.8925,487.6254q.0366.4815.03.964a34.8668,34.8668,0,0,0,3.0079,13.0822c3.3208,7.0241,8.8429,10.2952,17.3786,10.2952H365.3958q.3528,0,.7055.0233c3.698.1546,22.7927-.1833,24.9579-24.5056,2.8661-32.1688,22.88-299.82,27.32-359.275H93.5769Zm203.4866-15.4593,15.7114-299.9818a10.8471,10.8471,0,1,1,21.6645,1.1344l-15.7113,299.983a10.8474,10.8474,0,0,1-10.8228,10.2793c-.1917,0-.3834-.0042-.5773-.0148A10.8474,10.8474,0,0,1,324.3791,472.1661ZM244.8965,172.7515a10.8471,10.8471,0,0,1,21.6942,0V472.7339a10.8471,10.8471,0,0,1-21.6942,0Zm-85.88-10.8344a10.8336,10.8336,0,0,1,11.3609,10.3079l14.5715,299.9825a10.8468,10.8468,0,0,1-10.3079,11.3608c-.179.0085-.358.0127-.5349.0127A10.8468,10.8468,0,0,1,163.28,473.26L148.7084,173.278A10.8472,10.8472,0,0,1,159.0163,161.9171Z" transform="translate(0 0)" fill="#0fa"/><polygon points="75.222 66.173 59.704 106.515 452.998 106.515 439.596 66.173 75.222 66.173" fill="#0fa"/><path d="M202.9884,7.6906v36.788h106.031V9.9061c0-7.1952-5.7922-9.3472-7.9457-9.8985H210.2858c-1.7012,0-4.7482.2087-6.04,1.6069-1.1531,1.2473-1.3835,3.7663-1.3188,4.8976A6.4141,6.4141,0,0,1,202.9884,7.6906Z" transform="translate(0 0)" fill="#0fa"/></svg>