<svg xmlns="http://www.w3.org/2000/svg" width="512" height="512" viewBox="0 0 512 512"><title>stroke</title><rect width="512" height="512" fill="#f0f"/><polygon points="78.808 70.998 436.256 70.998 455.66 128.19 56.34 128.19 78.808 70.998" fill="none" stroke="#0fa" stroke-linecap="round" stroke-linejoin="round" stroke-width="20"/><path d="M92.0848,128.19l26.5533,342.1048s-.4218,31.6831,29.4062,31.6831H359.0261s31.272,1.9956,34.3358-31.6831S419.9152,128.19,419.9152,128.19" transform="translate(0 0)" fill="none" stroke="#0fa" stroke-linecap="round" stroke-linejoin="round" stroke-width="20"/><line x1="178.9311" y1="455.8086" x2="165.2112" y2="179.2536" fill="none" stroke="#0fa" stroke-linecap="round" stroke-linejoin="round" stroke-width="20"/><line x1="255.7864" y1="455.8086" x2="255.7864" y2="179.2536" fill="none" stroke="#0fa" stroke-linecap="round" stroke-linejoin="round" stroke-width="20"/><line x1="330.6073" y1="455.8086" x2="345.3995" y2="179.2536" fill="none" stroke="#0fa" stroke-linecap="round" stroke-linejoin="round" stroke-width="20"/><path d="M195.9039,70.9981V27.0832S193.8613,10,212.987,10h86.53s16.6423,2.7853,16.6423,19.1257V70.9981" transform="translate(0 0)" fill="none" stroke="#0fa" stroke-linecap="round" stroke-linejoin="round" stroke-width="20"/></svg>