<svg xmlns="http://www.w3.org/2000/svg" width="512" height="512" viewBox="0 0 512 512"><title>fill</title><rect width="512" height="512" fill="#f0f"/><path d="M458.9713,411.301A36.6428,36.6428,0,0,1,432.87,400.5138L255.89,223.5339,79.12,400.3126a36.9787,36.9787,0,0,1-52.2074.003l-.0278-.0274-16.1159-16.23A36.7062,36.7062,0,0,1,0,357.8846a37.4153,37.4153,0,0,1,10.7994-26.301L229.72,112.2665c7.4683-7.463,16.735-11.5675,26.1018-11.5675,9.4947,0,18.7838,4.1055,26.2389,11.5606L501.2118,332.1978a36.9385,36.9385,0,0,1-.0156,52.1928l-16.1154,16.1242A36.67,36.67,0,0,1,458.9713,411.301Z" transform="translate(0 0)" fill="#0fa"/></svg>