<svg xmlns="http://www.w3.org/2000/svg" width="512" height="512" viewBox="0 0 512 512"><title>stroke</title><rect width="512" height="512" fill="#f0f"/><path d="M33.98,393.2411a26.9768,26.9768,0,0,0,38.0683,0L255.89,209.3916,439.9435,393.4451a26.9816,26.9816,0,0,0,38.0643,0l16.12-16.1281a26.938,26.938,0,0,0,0-38.06L274.99,119.3309c-5.0641-5.0641-11.8121-8.6321-19.0842-8.6321h-.084c-7.2121,0-13.96,3.572-19.0241,8.6321L17.8641,338.6607A27.1824,27.1824,0,0,0,10,357.8848a26.9118,26.9118,0,0,0,7.8641,19.1282Z" transform="translate(0 0)" fill="none" stroke="#0fa" stroke-linecap="round" stroke-linejoin="round" stroke-width="20"/></svg>