<svg xmlns="http://www.w3.org/2000/svg" width="512" height="512" viewBox="0 0 512 512"><title>fill</title><rect width="512" height="512" fill="#f0f"/><path d="M105.3675,263.8579l33.1748-119.84a9.3762,9.3762,0,0,1,17.9723-.3369l28.2823,89.04h55.61a9.3759,9.3759,0,0,1,8.8792,6.3649l22.0016,64.8788,53.64-160.4186a9.3756,9.3756,0,0,1,17.9179.4372l33.6674,119.8268H477.7c21.2717-25.3273,34.3-59.329,34.3-96.7227,0-78.2786-57.0516-141.7359-127.4283-141.7359-66.0807,0-121.5567,55.9465-127.9438,127.5774-6.8843-71.0539-63.489-127.5774-129.2-127.5774C57.0516,25.3508,0,88.8081,0,167.0867c0,37.417,13.0413,71.44,34.3375,96.7712Z" transform="translate(0 0)" fill="#0fa"/><path d="M369.4085,282.5613a9.3757,9.3757,0,0,1-9.0262-6.84l-27.3414-97.31-52.8,157.9047a9.375,9.375,0,0,1-8.8714,6.403h-.02a9.3773,9.3773,0,0,1-8.88-6.3645l-28.7844-84.8829H177.9375a9.3758,9.3758,0,0,1-8.936-6.5375l-20.8058-65.5019-26.6588,96.3025a9.3766,9.3766,0,0,1-9.0363,6.8745H52.25L255.1759,486.6492,459.2637,282.5613Z" transform="translate(0 0)" fill="#0fa"/></svg>