<svg xmlns="http://www.w3.org/2000/svg" width="512" height="512" viewBox="0 0 512 512"><title>fill</title><rect width="512" height="512" fill="#f0f"/><path d="M509.4376,98.55,159.076,448.9118a8.7485,8.7485,0,0,1-12.3724,0L2.5624,304.7706a8.7487,8.7487,0,0,1,0-12.3724L26.6305,268.33a8.7485,8.7485,0,0,1,12.3724,0L147.3375,376.6648a8.7486,8.7486,0,0,0,12.3624.01L474.3117,63.0782a8.7486,8.7486,0,0,1,12.4062.0541l22.7635,23.09A8.7485,8.7485,0,0,1,509.4376,98.55Z" transform="translate(0 0)" fill="#0fa"/></svg>