<svg xmlns="http://www.w3.org/2000/svg" width="512" height="512" viewBox="0 0 512 512"><title>fill</title><rect width="512" height="512" fill="#f0f"/><path d="M255.4253,360.5074c-.4207,0-.8418-.0111-1.2671-.0342a23.6162,23.6162,0,0,1-22.3367-24.83l2.3021-43.5378c.9562-24.3737,26.7841-44.9594,60.4262-69.31,4.821-3.49,9.3746-6.7855,11.9345-8.87a33.4414,33.4414,0,0,0,11.5415-18.5143,10.7025,10.7025,0,0,1,.2805-1.63c2.5821-12.7634-1.7537-27.5443-11.5978-39.54-6.7417-8.2136-21.9437-21.9631-48.1061-21.9631-.0849,0-.1661,0-.2518,0-27.1467.0913-65.3774,17.5327-65.3774,56.0235a23.6162,23.6162,0,0,1-47.2324,0c0-64.3967,57.1753-103.07,112.4511-103.256q.1965-.0007.393-.0005c33.3312,0,64.16,14.2846,84.6337,39.2307,18.6052,22.6688,26.62,51.862,21.5093,78.2264a80.493,80.493,0,0,1-28.4272,48.054c-3.5977,2.929-8.4446,6.4373-14.0572,10.4991-8.3025,6.01-18.6365,13.49-27.2287,20.8284-9.4318,8.0553-12.762,12.5544-13.8045,14.2195l-2.2223,42.0333A23.62,23.62,0,0,1,255.4253,360.5074Zm25.8985-66.6661-.0009.0166Zm36.6836-98.2126v0Z" transform="translate(0 0)" fill="#0fa"/><path d="M255.6679,426.9539a23.6165,23.6165,0,0,1-23.6162-23.6163V394.059a23.6162,23.6162,0,0,1,47.2324,0v9.2786A23.6168,23.6168,0,0,1,255.6679,426.9539Z" transform="translate(0 0)" fill="#0fa"/><path d="M256,512A256,256,0,0,1,74.9806,74.9806,256,256,0,0,1,437.0194,437.0194,254.3217,254.3217,0,0,1,256,512Zm0-464.7675C140.8851,47.2325,47.2325,140.8851,47.2325,256S140.8851,464.7675,256,464.7675,464.7675,371.1153,464.7675,256,371.1153,47.2325,256,47.2325Z" transform="translate(0 0)" fill="#0fa"/></svg>