<svg xmlns="http://www.w3.org/2000/svg" width="512" height="512" viewBox="0 0 512 512"><title>fill</title><rect width="512" height="512" fill="#f0f"/><path d="M89.9294,376.0958a22.85,22.85,0,0,0,16.2085-6.7142L228.7073,246.8122l53.9671,53.9662a22.92,22.92,0,0,0,32.4161,0l87.4377-87.4373v9.3616a22.9223,22.9223,0,0,0,45.8445,0V159.905c0-.3353-.011-.6681-.0253-1A22.9016,22.9016,0,0,0,425.4505,135.08H360.8291a22.922,22.922,0,1,0,0,45.844h9.283l-71.23,71.23-53.9671-53.9667a22.9217,22.9217,0,0,0-32.4166.0005L73.7209,336.9655a22.9223,22.9223,0,0,0,16.2085,39.13Z" transform="translate(0 0)" fill="#0fa"/><path d="M489.0778,393.61H45.8436V95.4672A22.9218,22.9218,0,0,0,0,95.4672V416.5324a22.9222,22.9222,0,0,0,22.9218,22.9222h466.156a22.9223,22.9223,0,0,0,0-45.8445Z" transform="translate(0 0)" fill="#0fa"/></svg>