<svg xmlns="http://www.w3.org/2000/svg" width="512" height="512" viewBox="0 0 512 512"><title>fill</title><rect width="512" height="512" fill="#f0f"/><path d="M31.708,512a10,10,0,0,1-10-10c0-53.2705,24.5991-103.2471,69.2661-140.7217,44.1612-37.05,102.7686-57.4541,165.0259-57.4541s120.8643,20.4043,165.0254,57.4541C465.6924,398.7529,490.292,448.73,490.292,502a10,10,0,0,1-10,10" transform="translate(0 0)" fill="#0fa"/><path d="M256,270.9c-74.1924,0-134.5527-60.7627-134.5527-135.45S181.8076,0,256,0,390.5527,60.7627,390.5527,135.45,330.1924,270.9,256,270.9Z" transform="translate(0 0)" fill="#0fa"/></svg>