<svg xmlns="http://www.w3.org/2000/svg" width="512" height="512" viewBox="0 0 512 512"><title>fill</title><rect width="512" height="512" fill="#f0f"/><path d="M498.415,183.1125,341.0187,159.07,270.4665,8.7987c-5.2706-11.224-23.6773-11.224-28.948,0L170.9863,159.07,13.59,183.1125a15.9932,15.9932,0,0,0-9.02,26.9894L118.9142,327.3048,91.8821,493.0039a16.0119,16.0119,0,0,0,23.5321,16.572l140.5883-77.6922,140.5884,77.7136c11.516,6.4013,25.704-3.2867,23.532-16.5734l-27.032-165.6977,114.3442-117.203a16.014,16.014,0,0,0-9.02-27.0107Zm0,0" transform="translate(0 0)" fill="#0fa"/></svg>