<svg xmlns="http://www.w3.org/2000/svg" width="512" height="512" viewBox="0 0 512 512"><title>stroke</title><rect width="512" height="512" fill="#f0f"/><path d="M501.04,88.3773S499.277,49.5866,466.2168,42.093c-36.0012-8.16-49.8108,20.7177-49.8108,20.7177s-18.9823,30.887,7.9067,55.5719c0,0,10.1917,12.6665,31.158,12.6665,21.3253,0,31.4638,12.8694,31.4638,12.8694s18.0729,16.7505,10.5793,44.5211c0,0-3.0856,18.9545-26.889,27.7706s-39.6723-2.5826-39.6723-2.5826c-26.0074-15.0495-21.0514-39.7345-21.0514-39.7345" transform="translate(0 0)" fill="none" stroke="#0fa" stroke-linecap="round" stroke-linejoin="round" stroke-width="20"/><line x1="453.4335" y1="35.0401" x2="453.4335" y2="13" fill="none" stroke="#0fa" stroke-linecap="round" stroke-linejoin="round" stroke-width="20"/><line x1="453.4335" y1="222.3814" x2="453.4335" y2="248.4255" fill="none" stroke="#0fa" stroke-linecap="round" stroke-linejoin="round" stroke-width="20"/><rect x="10" y="425.0774" width="490.9392" height="76.9226" stroke-width="20" stroke="#0fa" stroke-linecap="round" stroke-linejoin="round" fill="none"/><polyline points="502 294.939 10 294.939 10 218.016 352.19 218.016" fill="none" stroke="#0fa" stroke-linecap="round" stroke-linejoin="round" stroke-width="20"/><rect x="10" y="10" width="342.1902" height="76.9226" stroke-width="20" stroke="#0fa" stroke-linecap="round" stroke-linejoin="round" fill="none"/></svg>