<svg xmlns="http://www.w3.org/2000/svg" width="512" height="512" viewBox="0 0 512 512"><title>fill</title><rect width="512" height="512" fill="#f0f"/><path d="M305.5881,133.4951a140.7251,140.7251,0,0,1,15.0837.2622c.2066.0207.3422.0323.55.0413,1.8994.107,46.4311,3.2505,85.3738,60.6154-6.4141,3.0392-22.8357,5.8406-38.1344,6.2807H145.7133c12.1425-11.4661,32.2712-27.3273,62.8845-42.8108a231.1726,231.1726,0,0,1,75.2389-22.7125Z" transform="translate(0 0)" fill="#0fa"/><path d="M105.225,378.5759c24.3686,0,44.1943-19.15,44.1943-42.6885S129.5936,293.2,105.225,293.2s-44.1943,19.1494-44.1943,42.6875S80.8564,378.5759,105.225,378.5759Z" transform="translate(0 0)" fill="#0fa"/><path d="M405.6993,293.2c-24.3687,0-44.1944,19.1494-44.1944,42.6875s19.8257,42.6885,44.1944,42.6885,44.1943-19.15,44.1943-42.6885S430.0679,293.2,405.6993,293.2Z" transform="translate(0 0)" fill="#0fa"/><path d="M497.3814,195.0057l-75.28,15.1763c-5.9333,4.6822-15.4322,7.875-29.4152,10.0143a214.1368,214.1368,0,0,1-23.7786,2.19c-.0975.0027-.196.0037-.2934.0037H117.3537c-10.6043,2.7606-80.9708,21.134-101.778,28.0238C.4645,255.4166.0122,272.594,0,273.3228L.0005,325.04H12.1658l28.1.129h0c5.24-30.4148,32.3655-53.664,64.9588-53.664,32.8074,0,60.0839,23.5526,65.0683,54.2612v-.0006l170.2186.7813c4.6452-31.089,32.1028-55.0419,65.1875-55.0419,33.318,0,60.9208,24.2944,65.2737,55.7034h.8878l-.0072-.0587,12.7964.0587h.0011l15.2334.07H512V224.6952C511.4915,221.4786,508.3009,204.1868,497.3814,195.0057Z" transform="translate(0 0)" fill="#0fa"/></svg>