<svg xmlns="http://www.w3.org/2000/svg" width="512" height="512" viewBox="0 0 512 512"><title>stroke</title><rect width="512" height="512" fill="#f0f"/><path d="M31.2147,329.66H10V271.9045s0-23.51,21.2147-30.5348,95.6917-26.3412,95.6917-26.3412h232.91s35.6587,0,44.6863-19.3169" transform="translate(0 0)" fill="none" stroke="#0fa" stroke-linecap="round" stroke-linejoin="round" stroke-width="20"/><path d="M316.62,133.3708s-52.41-5.2683-108.8322,23.268-75.8312,58.39-75.8312,58.39" transform="translate(0 0)" fill="none" stroke="#0fa" stroke-linecap="round" stroke-linejoin="round" stroke-width="20"/><line x1="296.7085" y1="171.0637" x2="289.8118" y2="133.6807" fill="none" stroke="#0fa" stroke-linecap="round" stroke-linejoin="round" stroke-width="20"/><path d="M480.7853,331.723H502V226.443s-3.16-26.3412-21.2147-37.3167" transform="translate(0 0)" fill="none" stroke="#0fa" stroke-linecap="round" stroke-linejoin="round" stroke-width="20"/><ellipse cx="117.0041" cy="329.6596" rx="50.7418" ry="49.3528" fill="none" stroke="#0fa" stroke-linecap="round" stroke-linejoin="round" stroke-width="20"/><ellipse cx="394.8222" cy="329.6596" rx="50.7418" ry="49.3528" fill="none" stroke="#0fa" stroke-linecap="round" stroke-linejoin="round" stroke-width="20"/><line x1="210.411" y1="331.723" x2="302.9431" y2="331.723" fill="none" stroke="#0fa" stroke-linecap="round" stroke-linejoin="round" stroke-width="20"/></svg>