<svg xmlns="http://www.w3.org/2000/svg" width="512" height="512" viewBox="0 0 512 512"><title>fill</title><rect width="512" height="512" fill="#f0f"/><path d="M433.4,0H78.6A78.6,78.6,0,0,0,0,78.6V433.4A78.6,78.6,0,0,0,78.6,512H256V310.231H190.7838V233.5588H256V172.2211s.1569-83.936,80.0574-83.936h88.7784v73.444H373.1829s-29.0547-2.4212-29.0547,31.4759v38.74h80.7076L415.958,310.231h-71.83V512H433.4A78.6,78.6,0,0,0,512,433.4V78.6A78.6,78.6,0,0,0,433.4,0Z" transform="translate(0 0)" fill="#0fa"/></svg>