<svg xmlns="http://www.w3.org/2000/svg" width="512" height="512" viewBox="0 0 512 512"><title>fill</title><rect width="512" height="512" fill="#f0f"/><path d="M181.9529,118.8218c2.7819,4.8181,7.4563,8.6142,13.646,11.2736.0105-.301.0229-.6015.0229-.905a25.7684,25.7684,0,0,0-15.8982-23.7743C179.8838,111.7326,180.819,116.8583,181.9529,118.8218Z" transform="translate(0 0)" fill="#0fa"/><path d="M298.9741,64.2217,267.2351,53.89l42.7391,51.3039a210.9608,210.9608,0,0,0,20.3152-14.3982C311.7436,65.9689,298.9741,64.2217,298.9741,64.2217Z" transform="translate(0 0)" fill="#0fa"/><path d="M307.4886,151.6547a27.5481,27.5481,0,0,0-5.9486-17.0493c-28.31,14.249-56.4919,21.4-80.3637,21.4018a108.497,108.497,0,0,1-11.9957-.643,47.23,47.23,0,0,1-85.0144-38.0393,10.7494,10.7494,0,0,1,20.8118,5.3914A25.72,25.72,0,0,0,185.9164,149.3c-9.7673-4.4033-17.5275-10.975-22.5814-19.7287-6.23-10.7891-5.24-29.0186-4.7888-34.3485a10.75,10.75,0,0,1,.6055-2.7287A10.7434,10.7434,0,0,1,169.89,81.9608a47.1768,47.1768,0,0,1,46.93,52.4916c2.6485.1185,5.3967.1309,8.2536.0134,19.17-.7857,40.7507-6.6723,62.1285-16.7924L192.8409,10.6466a27.6864,27.6864,0,0,0-45.5683,2.8049L41.7948,131.3536l-.9334,2.17a27.5673,27.5673,0,0,0-6.7143,15.6118l-.1254.2914V441.3975A70.6026,70.6026,0,0,0,104.6243,512c.7542,0,1.5-.0334,2.249-.0569l.0587.0569H233.8585l.0587-.0569c.7486.0235,1.4948.0569,2.249.0569a70.6026,70.6026,0,0,0,70.6026-70.6025l1.2726-288.5213ZM146.9814,200.6513h50.6123a10.7492,10.7492,0,1,1,0,21.4983H146.9814a10.7492,10.7492,0,1,1,0-21.4983ZM197.5937,476.67H146.9814a10.7492,10.7492,0,1,1,0-21.4983h50.6123a10.7492,10.7492,0,1,1,0,21.4983ZM160.1118,323.725a5.8588,5.8588,0,0,1,1.0246,1.0686c.6476.6582,4.3259,4.053,11.2693,4.053,16.046,0,25.0458,8.6077,27.5557,11.4178,5.9083,5.8113,13.9991,19.7316,9.3378,37.7207-1.3673,6.8694-7.7128,19.2593-23.6445,25.1608-1.2868.4766-2.5452.8765-3.779,1.22v8.9282a10.7492,10.7492,0,0,1-21.4983,0v-8.7523a33.3971,33.3971,0,0,1-9.0727-3.9819c-17.8558-10.5245-19.7584-27.6665-18.0495-36.1787l21.0774,4.23.042-.2247c-.2136,1.3983-.8293,8.633,8.0209,13.7546a4.8136,4.8136,0,0,1,.7862.4933c.8986.527,6.5409,3.4893,15.0058.3517,8.5416-3.1639,9.9971-9.0266,10.0065-9.0833a10.6635,10.6635,0,0,1,.2315-1.0738c2.9313-10.8626-3.5056-17.2081-3.5717-17.269a5.9041,5.9041,0,0,1-1.055-1.1159c-.6513-.6718-4.3248-4.0991-11.3931-4.0991-15.74,0-24.7189-8.3978-27.2671-11.188-17.692-16.6664-12.2886-38.0692-6.6993-47.566A37.3533,37.3533,0,0,1,160.3774,273.69v-8.2128a10.7492,10.7492,0,0,1,21.4983,0v7.8709c22.4126,5.2888,29.3332,26.9451,29.88,38.9677a10.7492,10.7492,0,0,1-21.4731,1.04c-.05-.8083-1.1841-16.3368-13.5052-19.1291-12.9446-2.9371-18.1932,5.2917-19.2293,7.2253a4.3407,4.3407,0,0,1-.4881.8912C155.8064,304.5171,150.5783,314.9724,160.1118,323.725Z" transform="translate(0 0)" fill="#0fa"/><path d="M470.3216,333.5154l-121.25-212.1929c-2.3547-4.5265-4.6647-8.6873-6.9235-12.5265-5.7737,4.562-11.8825,8.9332-18.2954,13.0579l6.1118,7.3366-5.014,324.2879c-2.119,14.5287-8.4026,35.523-26.8218,45.0737l26.339-13.8514-.0125.8079,119.7962-61.2839C499.3893,386.9886,470.3216,333.5154,470.3216,333.5154Zm-111.8875-62.736,26.7394-14.8875a9.2214,9.2214,0,1,1,8.971,16.114l-26.7393,14.8875a9.2215,9.2215,0,0,1-8.9711-16.114ZM349.28,339.2535a9.1143,9.1143,0,0,1,3.2954-12.4624L407.4986,294.84a9.1151,9.1151,0,0,1,9.167,15.7578L361.742,342.5489a9.11,9.11,0,0,1-12.4623-3.2954Zm90.19,15.5194-67.392,40.3989a9.5093,9.5093,0,1,1-9.7784-16.3123l67.3921-40.3988a9.5092,9.5092,0,1,1,9.7783,16.3122Z" transform="translate(0 0)" fill="#0fa"/></svg>