<svg xmlns="http://www.w3.org/2000/svg" width="512" height="512" viewBox="0 0 512 512"><title>fill</title><rect width="512" height="512" fill="#f0f"/><path d="M181.4945,0C81.2579,0,0,81.3408,0,181.68s81.2579,181.68,181.4945,181.68S362.989,282.0185,362.989,181.68,281.7311,0,181.4945,0Zm0,309.81a128.1306,128.1306,0,1,1,128-128.1306A128.0654,128.0654,0,0,1,181.4945,309.81Z" transform="translate(0 0)" fill="#0fa"/><path d="M504.32,467.181,354.8617,317.5771a182.6463,182.6463,0,0,1-37.0768,37.2007L467.1585,504.2971A26.261,26.261,0,1,0,504.32,467.181Z" transform="translate(0 0)" fill="#0fa"/></svg>