<svg xmlns="http://www.w3.org/2000/svg" width="512" height="512" viewBox="0 0 512 512"><title>stroke</title><rect width="512" height="512" fill="#f0f"/><path d="M301.2021,210.7979V27.383A17.3829,17.3829,0,0,0,283.8192,10H228.1809a17.3829,17.3829,0,0,0-17.383,17.383V210.7979H27.383A17.3829,17.3829,0,0,0,10,228.1809v55.6383a17.3829,17.3829,0,0,0,17.383,17.3829H210.7979V484.617A17.383,17.383,0,0,0,228.1808,502h55.6383a17.383,17.383,0,0,0,17.383-17.383V301.2021H484.617A17.383,17.383,0,0,0,502,283.8191V228.1808a17.383,17.383,0,0,0-17.383-17.3829Z" transform="translate(0 0)" fill="none" stroke="#0fa" stroke-linecap="round" stroke-linejoin="round" stroke-width="20"/></svg>