<svg xmlns="http://www.w3.org/2000/svg" width="512" height="512" viewBox="0 0 512 512"><title>fill</title><rect width="512" height="512" fill="#f0f"/><path d="M223.7749,265.8288H153.5821a126.2943,126.2943,0,0,0,30.1351,72.5942l49.6039-49.6047A56.81,56.81,0,0,1,223.7749,265.8288Z" transform="translate(0 0)" fill="#0fa"/><path d="M197.6177,352.3235a126.293,126.293,0,0,0,72.5938,30.1351V312.2653a56.807,56.807,0,0,1-22.99-9.5465Z" transform="translate(0 0)" fill="#0fa"/><path d="M233.3214,223.1811l-49.604-49.6043a126.2945,126.2945,0,0,0-30.1353,72.5944h70.1928A56.8091,56.8091,0,0,1,233.3214,223.1811Z" transform="translate(0 0)" fill="#0fa"/><path d="M270.2115,199.7342V129.5414a126.2936,126.2936,0,0,0-72.5941,30.1354l49.6039,49.6042A56.8069,56.8069,0,0,1,270.2115,199.7342Z" transform="translate(0 0)" fill="#0fa"/><rect y="87.1745" width="75.5474" height="71.7968" fill="#0fa"/><path d="M317.5116,256a37.4714,37.4714,0,1,0-65.4734,24.8624,9.5582,9.5582,0,0,1,3.14,3.1395A37.4443,37.4443,0,0,0,317.5116,256Z" transform="translate(0 0)" fill="#0fa"/><path d="M362.4645,159.6776a126.2945,126.2945,0,0,0-72.5954-30.1362v70.1928a56.8076,56.8076,0,0,1,22.9967,9.5515Z" transform="translate(0 0)" fill="#0fa"/><rect y="353.381" width="75.5474" height="71.7973" fill="#0fa"/><path d="M474.4279,24.04H85.6531A37.6149,37.6149,0,0,0,48.0805,61.6124v5.9045H85.3762a9.8287,9.8287,0,0,1,9.8288,9.8288V168.8a9.8287,9.8287,0,0,1-9.8288,9.8288H48.0805V333.7234H85.3762a9.829,9.829,0,0,1,9.8288,9.8288v91.4549a9.829,9.829,0,0,1-9.8288,9.8288H48.0805v5.5517A37.6149,37.6149,0,0,0,85.6531,487.96H474.4279A37.6148,37.6148,0,0,0,512,450.3876V61.6124A37.6148,37.6148,0,0,0,474.4279,24.04ZM384.4246,358.6728a8.9367,8.9367,0,0,1-1.7212,1.7209,146.2229,146.2229,0,0,1-205.3324-.0064,8.9476,8.9476,0,0,1-1.7175-1.7175,146.2236,146.2236,0,0,1-.0007-205.3388,8.9557,8.9557,0,0,1,1.7186-1.7187,146.2228,146.2228,0,0,1,205.3371-.0009,8.9542,8.9542,0,0,1,1.72,1.72,146.2236,146.2236,0,0,1-.0035,205.3418Z" transform="translate(0 0)" fill="#0fa"/><path d="M326.7634,223.1872a56.81,56.81,0,0,1,9.5422,22.984h70.1933a126.2944,126.2944,0,0,0-30.135-72.594Z" transform="translate(0 0)" fill="#0fa"/><path d="M289.8691,312.2653v70.1933a126.2947,126.2947,0,0,0,72.6243-30.1607l-49.3791-49.7608A56.8122,56.8122,0,0,1,289.8691,312.2653Z" transform="translate(0 0)" fill="#0fa"/><path d="M326.9415,288.5624l49.448,49.83a126.2931,126.2931,0,0,0,30.1094-72.5638H336.3056A56.8034,56.8034,0,0,1,326.9415,288.5624Z" transform="translate(0 0)" fill="#0fa"/></svg>