<svg xmlns="http://www.w3.org/2000/svg" width="512" height="512" viewBox="0 0 512 512"><title>stroke</title><rect width="512" height="512" fill="#f0f"/><circle cx="278.2472" cy="256" r="126.471" fill="none" stroke="#0fa" stroke-linecap="round" stroke-linejoin="round" stroke-width="20"/><circle cx="278.2472" cy="256" r="43.7722" fill="none" stroke="#0fa" stroke-linecap="round" stroke-linejoin="round" stroke-width="20"/><path d="M54.4943,87.754V76.1125A43.8653,43.8653,0,0,1,98.36,32.2472h359.775A43.8653,43.8653,0,0,1,502,76.1125v359.775a43.8653,43.8653,0,0,1-43.8653,43.8653H98.36a43.8653,43.8653,0,0,1-43.8654-43.8653V424.8306" transform="translate(0 0)" fill="none" stroke="#0fa" stroke-linecap="round" stroke-linejoin="round" stroke-width="20"/><rect x="10" y="90.6722" width="88.1034" height="84.6324" stroke-width="20" stroke="#0fa" stroke-linecap="round" stroke-linejoin="round" fill="none"/><rect x="10" y="337.0216" width="88.1034" height="84.6324" stroke-width="20" stroke="#0fa" stroke-linecap="round" stroke-linejoin="round" fill="none"/><line x1="54.4943" y1="337.0216" x2="54.4943" y2="175.3045" fill="none" stroke="#0fa" stroke-linecap="round" stroke-linejoin="round" stroke-width="20"/><line x1="278.2472" y1="382.471" x2="278.2472" y2="299.7722" fill="none" stroke="#0fa" stroke-linecap="round" stroke-linejoin="round" stroke-width="20"/><line x1="188.8186" y1="345.4285" x2="247.5259" y2="286.7213" fill="none" stroke="#0fa" stroke-linecap="round" stroke-linejoin="round" stroke-width="20"/><line x1="151.7761" y1="256" x2="231.3623" y2="256" fill="none" stroke="#0fa" stroke-linecap="round" stroke-linejoin="round" stroke-width="20"/><line x1="188.8186" y1="166.5715" x2="247.3009" y2="225.0538" fill="none" stroke="#0fa" stroke-linecap="round" stroke-linejoin="round" stroke-width="20"/><line x1="278.2472" y1="129.529" x2="278.2472" y2="212.2278" fill="none" stroke="#0fa" stroke-linecap="round" stroke-linejoin="round" stroke-width="20"/><line x1="367.6757" y1="166.5715" x2="309.2039" y2="225.0538" fill="none" stroke="#0fa" stroke-linecap="round" stroke-linejoin="round" stroke-width="20"/><line x1="404.7182" y1="256" x2="322.0193" y2="256" fill="none" stroke="#0fa" stroke-linecap="round" stroke-linejoin="round" stroke-width="20"/><line x1="367.6757" y1="345.4285" x2="309.4183" y2="286.7213" fill="none" stroke="#0fa" stroke-linecap="round" stroke-linejoin="round" stroke-width="20"/></svg>