<svg xmlns="http://www.w3.org/2000/svg" width="512" height="512" viewBox="0 0 512 512"><title>fill</title><rect width="512" height="512" fill="#f0f"/><rect x="0.4747" y="0.2247" width="213.0053" height="213.2615" rx="44.8165" fill="#0fa"/><rect x="0.4747" y="298.9632" width="213.0053" height="213.2615" rx="44.8165" fill="#0fa"/><rect x="299.4695" y="298.9632" width="213.0053" height="213.2615" rx="44.8165" fill="#0fa"/><path d="M465.8364,31.4442A15.4363,15.4363,0,0,1,481.2552,46.863V166.848a15.4362,15.4362,0,0,1-15.4188,15.4187H346.1077a15.4362,15.4362,0,0,1-15.4188-15.4187V46.863a15.4363,15.4363,0,0,1,15.4188-15.4188H465.8364m0-31.2195H346.1077A46.6384,46.6384,0,0,0,299.4694,46.863V166.848a46.6384,46.6384,0,0,0,46.6383,46.6383H465.8364a46.6383,46.6383,0,0,0,46.6383-46.6383V46.863A46.6383,46.6383,0,0,0,465.8364.2247Z" transform="translate(0 0)" fill="#0fa"/></svg>