<svg xmlns="http://www.w3.org/2000/svg" width="512" height="512" viewBox="0 0 512 512"><title>fill</title><rect width="512" height="512" fill="#f0f"/><path d="M258.6451,109.3564A11.0551,11.0551,0,0,1,247.59,98.3011V17.8384a11.0556,11.0556,0,0,1,22.1111,0V98.3011A11.0557,11.0557,0,0,1,258.6451,109.3564Z" transform="translate(0 0)" fill="#0fa"/><path d="M192.7864,122.5833a11.0551,11.0551,0,0,1-11.0552-11.0553V69.7312a11.0553,11.0553,0,0,1,22.1105,0V111.528A11.0551,11.0551,0,0,1,192.7864,122.5833Z" transform="translate(0 0)" fill="#0fa"/><path d="M324.9719,122.5833a11.0555,11.0555,0,0,1-11.0553-11.0553V69.7312a11.0553,11.0553,0,0,1,22.1105,0V111.528A11.0554,11.0554,0,0,1,324.9719,122.5833Z" transform="translate(0 0)" fill="#0fa"/><path d="M61.2164,495.19V338.1814a3.0067,3.0067,0,0,0-3.0067-3.0067H3.0067A3.0066,3.0066,0,0,0,0,338.1814V495.2289a3.0066,3.0066,0,0,0,3.0067,3.0066H58.21a3.0067,3.0067,0,0,0,3.0067-3.0066h0C61.2162,495.2157,61.2165,495.2027,61.2164,495.19Z" transform="translate(0 0)" fill="#0fa"/><path d="M258.7655,349.9406A106.5605,106.5605,0,1,0,152.2048,243.38,106.6816,106.6816,0,0,0,258.7655,349.9406Zm-40.4218-78.9664a11.0548,11.0548,0,0,1,22.1042-.4865c.0064.1761-.119,1.0623-.1072,2.3661l.189.0379s.02-.0805.0438-.2348a11.1887,11.1887,0,0,0,.08,3.4167,16.4924,16.4924,0,0,0,.5591,2.1459c.9419,2.63,3.0161,5.7162,7.4463,8.28a4.8374,4.8374,0,0,1,.8065.5063c.9171.5344,6.6024,3.499,15.13.3422,7.9352-2.9387,9.7814-8.1284,10.1-9.28a4.3152,4.3152,0,0,1,.2224-.95c2.76-10.2331-2.6851-16.4631-3.6545-17.4709a3.9221,3.9221,0,0,1-1.0257-1.0969c-.6758-.6925-4.3757-4.1144-11.472-4.1144-16.0339,0-25.1928-8.5532-27.8017-11.4072-18.0366-16.991-12.5284-38.8084-6.8307-48.4942A38.1,38.1,0,0,1,246.41,176.3056V168.061a11.0553,11.0553,0,1,1,22.11,0v7.8966c22.77,5.434,29.8076,27.458,30.3631,39.6945a11.0548,11.0548,0,0,1-22.0835,1.0726c-.0507-.8087-1.1962-16.503-13.6226-19.32-13.0434-2.9566-18.3427,5.3187-19.392,7.2717a4.3945,4.3945,0,0,1-.5015.915c-1.2659,2.1975-6.5306,12.7421,3.0774,21.5631a5.9983,5.9983,0,0,1,1.0521,1.0964c.6618.67,4.3681,4.0734,11.3516,4.0734,16.3476,0,25.5265,8.7681,28.0959,11.6431,6.0254,5.9271,14.2726,20.1186,9.5233,38.4527-1.397,7.01-7.8693,19.6468-24.11,25.6624-1.2778.4732-2.5273.87-3.7539,1.2138V318.27a11.0553,11.0553,0,1,1-22.11,0V309.474a34.0738,34.0738,0,0,1-9.1551-4.03c-15.9159-9.381-19.4006-23.9225-18.8613-33.2355C218.3728,271.7907,218.3512,271.3719,218.3437,270.9742Z" transform="translate(0 0)" fill="#0fa"/><path d="M477.3956,375.9313c-26.5752,10.9715-60.8969,28.2733-77.1529,36.6369a3.8541,3.8541,0,0,0-2.0827,3.6108,45.0593,45.0593,0,0,1-2.6241,17.5419,11.0559,11.0559,0,0,1-10.3827,7.2659c-.163,0-.3261-.0033-.49-.0108l-120.104-5.29a11.0552,11.0552,0,0,1,.9739-22.0889l106.2532,4.68a3.871,3.871,0,0,0,3.9965-4.4489c-.1588-1.0291-.3644-2.0189-.5986-2.9581-.0635-.2066-.1137-.4144-.1644-.6226a35.3261,35.3261,0,0,0-3.3638-8.29c-.095-.15-.1857-.3012-.272-.4556-11.95-21.167-62.404-21.5945-79.1359-20.0809-.0993.01-.2072.0184-.3076.0249-50.837,3.2151-77.8058-8.9187-97.4834-21.2177-16.2515-10.1571-34.4041-11.851-34.5855-11.8672-.0626-.0054-.1576-.014-.2208-.0205-34.4217-3.6162-62.915,10.3418-75.0195,17.553a3.8688,3.8688,0,0,0-1.8945,3.3257V469.5668a3.8648,3.8648,0,0,0,5.7567,3.37l.0366-.02c.0593-.0335.1193-.0669.1792-.0983,1.0931-.5873,27.0611-14.2433,56.499-4.5257l116.0138,34.3663c1.4694.3952,47.2224,12.177,94.6661-18.3837L510.2246,384.41a3.8542,3.8542,0,0,0-.0567-6.527l-.0546-.0326C499.9682,371.8017,488.9593,371.1551,477.3956,375.9313Z" transform="translate(0 0)" fill="#0fa"/></svg>