<svg xmlns="http://www.w3.org/2000/svg" width="512" height="512" viewBox="0 0 512 512"><title>stroke</title><rect y="0.0013" width="512" height="512" fill="#f0f"/><path d="M501.9984,279.0708a16.0691,16.0691,0,0,1-13.4278,15.8986l-35.9968,5.9988A17.6011,17.6011,0,0,0,438.58,313.2018a190.8568,190.8568,0,0,1-13.0446,31.4643A17.5918,17.5918,0,0,0,426.82,363.09l21.2127,29.7891a16.0776,16.0776,0,0,1-1.7514,20.7457l-32.6594,32.6583a16.0432,16.0432,0,0,1-20.72,1.77l-29.6617-21.2007a17.59,17.59,0,0,0-18.5045-1.2931,192.38,192.38,0,0,1-31.5078,13.0457,17.6007,17.6007,0,0,0-12.1433,13.9121l-6.1141,36.0359a16.07,16.07,0,0,1-15.903,13.4484H232.82a16.0653,16.0653,0,0,1-15.8975-13.4277l-6-35.9967a17.6049,17.6049,0,0,0-12.1182-13.9633,191.0666,191.0666,0,0,1-30.5031-12.54,17.62,17.62,0,0,0-18.399,1.2888L119.709,448.852a15.4291,15.4291,0,0,1-9.2011,2.9509A15.7635,15.7635,0,0,1,99.1461,447.05l-32.7182-32.715a15.9459,15.9459,0,0,1-1.7394-20.626l21.0854-29.3308a17.5751,17.5751,0,0,0,1.255-18.6569,186.7013,186.7013,0,0,1-13.2112-31.3456A17.637,17.637,0,0,0,59.935,302.2907l-36.49-6.2208A16.0752,16.0752,0,0,1,10,280.168V234.0254a16.0757,16.0757,0,0,1,13.4571-15.902l35.5549-6a17.5854,17.5854,0,0,0,13.9763-12.2794,188.24,188.24,0,0,1,12.828-31.5448,17.6135,17.6135,0,0,0-1.2877-18.3989L63.09,119.78A16.0645,16.0645,0,0,1,64.82,99.0512l32.77-32.6584.1187-.124a15.6331,15.6331,0,0,1,11.2594-4.6469,15.8133,15.8133,0,0,1,9.3122,2.951l29.457,21.2039a17.5634,17.5634,0,0,0,18.6536,1.2507,186.6559,186.6559,0,0,1,31.3326-13.2068,17.6346,17.6346,0,0,0,12.0921-13.887l6.2252-36.49A16.0692,16.0692,0,0,1,231.9433,9.9987h46.1426a16.0748,16.0748,0,0,1,15.902,13.4571l6,35.5678a17.5926,17.5926,0,0,0,12.2968,13.9721,189.9907,189.9907,0,0,1,32.6888,13.4528,17.612,17.612,0,0,0,18.45-1.2714L393.28,63.9132a15.41,15.41,0,0,1,9.2011-2.9509,15.7748,15.7748,0,0,1,11.3618,4.7546l32.7138,32.7138a15.95,15.95,0,0,1,1.7144,20.6608L427.05,148.7826a17.6069,17.6069,0,0,0-1.2714,18.48,192.2247,192.2247,0,0,1,13.049,31.511,17.6,17.6,0,0,0,13.9121,12.139l36.0055,6.11.03.0043A15.6605,15.6605,0,0,1,501.9984,232.7Z" transform="translate(0 0.0013)" fill="none" stroke="#0fa" stroke-miterlimit="10" stroke-width="20"/><circle cx="256" cy="256.0013" r="101" fill="none" stroke="#0fa" stroke-miterlimit="10" stroke-width="20"/></svg>