<svg xmlns="http://www.w3.org/2000/svg" width="512" height="512" viewBox="0 0 512 512"><title>fill</title><rect width="512" height="512" fill="#f0f"/><path d="M78.3177,60.417h-.0432a18.0539,18.0539,0,0,0-12.8366,5.32,18.243,18.243,0,0,0-5.3873,13.0048V353.4749A18.38,18.38,0,0,0,78.393,371.7915c42.6434.1013,114.1,8.99,163.3846,60.5721V144.846a17.4943,17.4943,0,0,0-2.5169-9.2768C198.8068,70.4158,121.0623,60.5183,78.3177,60.417Zm0,0" transform="translate(0 0)" fill="#0fa"/><path d="M451.9558,353.4749V78.7423A18.2424,18.2424,0,0,0,446.56,65.7375a18.032,18.032,0,0,0-12.8368-5.32h-.0409c-42.736.1013-120.48,9.9988-160.9366,75.1522a17.5142,17.5142,0,0,0-2.5169,9.2768V432.3549c49.2847-51.5731,120.7347-60.4621,163.3867-60.5634a18.3948,18.3948,0,0,0,18.34-18.3166Zm0,0" transform="translate(0 0)" fill="#0fa"/><path d="M493.6833,123.7754H480.4005v229.7a46.8754,46.8754,0,0,1-46.7182,46.7592c-36.1786.0839-95.8177,7.1628-138.0559,47.1384,73.0555-17.8878,150.0673-6.2622,193.9562,3.7452A18.3218,18.3218,0,0,0,512,433.2644V142.092a18.3316,18.3316,0,0,0-18.3167-18.3166Zm0,0" transform="translate(0 0)" fill="#0fa"/><path d="M31.5994,353.4749V123.7754H18.3166A18.3357,18.3357,0,0,0,0,142.092V433.2557a18.3217,18.3217,0,0,0,22.4152,17.8555c43.8975-10.0009,120.9115-21.6352,193.9669-3.7474-42.24-39.9755-101.8858-47.0458-138.0558-47.13a46.8773,46.8773,0,0,1-46.7269-46.7592Zm0,0" transform="translate(0 0)" fill="#0fa"/></svg>