<svg xmlns="http://www.w3.org/2000/svg" width="512" height="512" viewBox="0 0 512 512"><title>stroke</title><rect width="512" height="512" fill="#f0f"/><path d="M85.9525,68.821h-.0413a17.2781,17.2781,0,0,0-12.2851,5.0918A17.46,17.46,0,0,0,68.47,86.3588V349.2865a17.59,17.59,0,0,0,17.5543,17.53c40.811.0969,109.1971,8.6039,156.3642,57.9694V149.6222a16.7432,16.7432,0,0,0-2.4088-8.8782C201.2643,78.39,126.86,68.9179,85.9525,68.821Zm0,0" transform="translate(0 0)" fill="none" stroke="#0fa" stroke-linecap="round" stroke-linejoin="round" stroke-width="20"/><path d="M443.5358,349.2865V86.3588a17.4587,17.4587,0,0,0-5.164-12.446,17.2568,17.2568,0,0,0-12.2851-5.0918h-.0392c-40.9.0969-115.3036,9.5691-154.0213,71.923a16.7613,16.7613,0,0,0-2.4088,8.8782v275.155c47.167-49.3572,115.5469-57.8642,156.3662-57.9611a17.6045,17.6045,0,0,0,17.5522-17.53Zm0,0" transform="translate(0 0)" fill="none" stroke="#0fa" stroke-linecap="round" stroke-linejoin="round" stroke-width="20"/><path d="M483.47,129.4569H470.7583v219.83a44.8611,44.8611,0,0,1-44.7108,44.75c-34.6241.08-91.7005,6.8551-132.1238,45.113,69.9164-17.1192,143.6191-5.9931,185.6221,3.5842A17.5346,17.5346,0,0,0,501,425.6475V146.9865a17.544,17.544,0,0,0-17.53-17.53Zm0,0" transform="translate(0 0)" fill="none" stroke="#0fa" stroke-linecap="round" stroke-linejoin="round" stroke-width="20"/><path d="M41.2416,349.2865v-219.83H28.53A17.5479,17.5479,0,0,0,11,146.9865V425.6392a17.5343,17.5343,0,0,0,21.4521,17.0883c42.0112-9.5711,115.716-20.7055,185.6324-3.5863-40.4254-38.2578-97.508-45.0243-132.1238-45.1047a44.8629,44.8629,0,0,1-44.7191-44.75Zm0,0" transform="translate(0 0)" fill="none" stroke="#0fa" stroke-linecap="round" stroke-linejoin="round" stroke-width="20"/></svg>