<svg xmlns="http://www.w3.org/2000/svg" width="512" height="512" viewBox="0 0 512 512"><title>fill</title><rect width="512" height="512" fill="#f0f"/><circle cx="256.0001" cy="256.0001" r="99.0169" transform="translate(-51.9686 65.6652) rotate(-13.2826)" fill="#0fa"/><path d="M409.5956,0H102.4044A102.4044,102.4044,0,0,0,0,102.4044V409.5955A102.4045,102.4045,0,0,0,102.4044,512H409.5956A102.4045,102.4045,0,0,0,512,409.5955V102.4044A102.4044,102.4044,0,0,0,409.5956,0ZM256,407.05c-83.2886,0-151.0493-67.7612-151.0493-151.05S172.7114,104.9507,256,104.9507,407.05,172.7114,407.05,256,339.2886,407.05,256,407.05ZM413.98,124.1717a27.0945,27.0945,0,1,1,27.0945-27.0945A27.0946,27.0946,0,0,1,413.98,124.1717Z" transform="translate(0 0)" fill="#0fa"/></svg>