<svg xmlns="http://www.w3.org/2000/svg" width="512" height="512" viewBox="0 0 512 512"><title>fill</title><rect width="512" height="512" fill="#f0f"/><path d="M396.4934,179.4732c-17.2-3.419-58-13-84.8165-31.2354-27.5339-18.724-67.295-6.8125-67.6933-6.69-.2336.0721-.3009.0959-.5392.152-.2468.0689-34.4248,9.9434-66.0037,63.2845-6.0043,10.1419-8.0879,18.6409-5.5747,22.7351,2.312,3.7654,9.6038,5.8184,18.5879,5.2368,15.2055-.9894,30.3157-8.9153,34.4-18.0445a10.8465,10.8465,0,0,1,9.6933-6.4153c8.9439-.2,19.55-2.7807,21.5022-5.2251a10.848,10.848,0,0,1,16.7537-3.2939l133.4364,115.11c.0593.052.1187.1039.1769.1568a50.1358,50.1358,0,0,1,5.2954,5.6283l28.3827-16.3468c-9.18-24.9845-35.34-96.6057-42.6113-121.1469C397.089,182.05,396.7738,180.7537,396.4934,179.4732Z" transform="translate(0 0)" fill="#0fa"/><path d="M463.7585,306.0244c.7,1.983,6.4385,16.3506,25.4671,16.3506H512V120.95L431.2542,150.312c-3.1652,1.2924-18.3972,8.589-12.97,26.9041,8.4756,28.607,44.9587,127.39,45.3263,128.3846C463.6907,305.82,463.7,305.8305,463.7585,306.0244Z" transform="translate(0 0)" fill="#0fa"/><path d="M70.4283,284.3781c18.3627,14.3675,115.879,90.5727,151.7931,116.7808,16.1149,11.7607,29.195,14.3941,38.3569,14.025L214.715,369.9206A10.8473,10.8473,0,1,1,229.9544,354.48l53.9916,53.285c6.8962,3.0858,12.626,3.5836,17.0529,1.4745,5.1862-2.4742,8.5177-8.1274,10.3989-12.4258l-56.4031-53.5562a10.8477,10.8477,0,0,1,14.9386-15.733l67.2659,63.8718c10.5294-1.5636,16.6853-13.9158,18.5331-18.2357l-64.0829-64.4062a10.8478,10.8478,0,1,1,15.3792-15.303l59.89,58.0773c3.6748,2.1674,10.6081,7.0212,18.7945-3.5593,9.5731-12.375-5.9332-24.5127-7.8856-26.3358L265.9979,222.76c-7.7511,4.6716-17.7622,6.4232-24.7548,7.07-10.6388,15.4619-32.1594,23.6552-49.3808,24.7754-17.6939,1.1563-31.7166-4.5111-38.4847-15.5344-4.9533-8.0683-8.0381-22.4486,5.3946-45.1382a226.6221,226.6221,0,0,1,21.7442-30.8459l-68.2876,3.4917C102.2231,197.739,77.2324,265.8969,70.4283,284.3781Z" transform="translate(0 0)" fill="#0fa"/><path d="M80.7135,126.1346,0,96.7834V298.2087H22.7744c19.03,0,24.768-14.3686,25.4682-16.35.0572-.1938.0667-.2044.1478-.4237.3675-.9936,36.85-99.7781,45.3262-128.3851C99.116,134.8258,84.0625,127.5111,80.7135,126.1346Z" transform="translate(0 0)" fill="#0fa"/></svg>