<svg xmlns="http://www.w3.org/2000/svg" width="512" height="512" viewBox="0 0 512 512"><title>fill</title><rect width="512" height="512" fill="#f0f"/><path d="M501.8981,245.8983H456.8723a201.1419,201.1419,0,0,0-190.77-190.77V10.102a10.102,10.102,0,0,0-20.2039,0V55.1277A201.1422,201.1422,0,0,0,55.1277,245.8983H10.102a10.102,10.102,0,0,0,0,20.2039H55.1278a201.1419,201.1419,0,0,0,190.7705,190.77v45.0258a10.102,10.102,0,1,0,20.2039,0V456.8723a201.1419,201.1419,0,0,0,190.77-190.77h45.0258a10.102,10.102,0,1,0,0-20.2039Zm-82.9813,0H383.2316a127.8361,127.8361,0,0,0-117.1294-117.13V93.0833C348.0813,98.1143,413.886,163.9189,418.9168,245.8983Zm-173.0185-21.34a33.0935,33.0935,0,0,0-21.34,21.34H166.8228a89.9159,89.9159,0,0,1,79.0755-79.0755Zm-21.34,41.5436a33.0937,33.0937,0,0,0,21.34,21.3392v57.7354a89.9156,89.9156,0,0,1-79.0754-79.0746Zm41.5435,21.3391a33.093,33.093,0,0,0,21.3391-21.3391h57.7355a89.9154,89.9154,0,0,1-79.0746,79.0746Zm21.3392-41.543a33.0937,33.0937,0,0,0-21.3392-21.34V166.8229a89.9156,89.9156,0,0,1,79.0746,79.0754ZM245.8983,93.0833v35.6848a127.8362,127.8362,0,0,0-117.13,117.13H93.0833C98.114,163.9187,163.9187,98.114,245.8983,93.0833ZM93.0833,266.1022h35.6848a127.8361,127.8361,0,0,0,117.13,117.1294v35.6852C163.9189,413.886,98.1143,348.0813,93.0833,266.1022ZM266.1022,418.9167V383.2315A127.8355,127.8355,0,0,0,383.2315,266.1022h35.6852C413.8857,348.0811,348.0811,413.8857,266.1022,418.9167Z" transform="translate(0 0)" fill="#0fa"/></svg>