<svg xmlns="http://www.w3.org/2000/svg" width="512" height="512" viewBox="0 0 512 512"><title>fill</title><rect y="0.0001" width="512" height="512" fill="#f0f"/><path d="M184.6693,411.6744c-3.5542.66-5.1142,2.3372-4.6742,4.9914.44,2.68,2.46,3.56,6.0141,2.68,3.5545-.9,5.1144-2.46,4.6541-4.6744-.44-2.4394-2.4344-3.4574-5.994-2.9969Zm0,0" transform="translate(0 0.0001)" fill="#0fa"/><path d="M165.6752,414.3285q-5.3394,0-5.3342,3.6771c0,2.8743,1.8974,4.0967,5.6718,3.6569q5.3316,0,5.3341-3.6569c0-2.8945-1.8974-4.1169-5.6717-3.6771Zm0,0" transform="translate(0 0.0001)" fill="#0fa"/><path d="M139.6642,413.3314c-.88,2.4343.5575,4.1169,4.3317,4.9915q5.01,2.01,6.3366-1.9946c.675-2.44-.7824-4.2141-4.337-5.3341-3.3189-.88-5.4363-.1228-6.3313,2.3372Zm0,0" transform="translate(0 0.0001)" fill="#0fa"/><path d="M483.831,28.1639Q455.6694.0024,416.0113,0H95.9939Q56.3484,0,28.169,28.1639,0,56.3331,0,95.9887V416.006q0,39.6764,28.169,67.8248Q56.3383,512,95.9939,512h74.6727a91.9259,91.9259,0,0,0,11.0058-.4809c2.44-.3374,4.879-1.795,7.3339-4.3521q3.6591-3.8356,3.6567-11.1694,0-.99-.1586-22.6561Q192.32,451.6778,192.32,439l-7.6713,1.34a99.948,99.948,0,0,1-18.498,1.1609,142.0473,142.0473,0,0,1-23.1521-2.3372,51.905,51.905,0,0,1-22.3339-9.9881,42.2585,42.2585,0,0,1-14.6625-20.4978l-3.34-7.6713a82,82,0,0,0-10.5046-17q-7.1649-9.3516-14.4835-12.6679l-2.3423-1.6775a24.1815,24.1815,0,0,1-4.3317-3.9942,18.092,18.092,0,0,1-2.9969-4.6744c-.68-1.56-.1227-2.8384,1.6569-3.8357,1.78-1.0023,4.9967-1.4984,9.6711-1.4984l6.6689.9973c4.4392.9,9.9319,3.5544,16.5035,8.0089a53.7692,53.7692,0,0,1,16.1611,17.3217q7.6711,13.6629,18.498,20.8353,10.8167,7.1652,21.8377,7.1754a95.2326,95.2326,0,0,0,18.9995-1.6622,65.8018,65.8018,0,0,0,15-5.0118q3-22.3236,16.3246-34.3216a227.2836,227.2836,0,0,1-34.163-6.0143,134.7451,134.7451,0,0,1-31.3246-13.0054,89.7139,89.7139,0,0,1-26.85-22.3339q-10.671-13.3327-17.5008-35.0018-6.8354-21.6637-6.8326-50.0017,0-40.336,26.3535-68.6635-12.3507-30.3251,2.3168-68.0039,9.6733-2.992,28.6651,4.4955,19.002,7.5252,27.8469,12.8469,8.8452,5.3315,14.1665,8.9908a240.9784,240.9784,0,0,1,127.9936,0l12.668-7.9935A178.6269,178.6269,0,0,1,363.35,109.6539q17.6515-6.6817,26.9877-3.6771,15.0127,37.6662,2.6595,68.0039,26.3356,28.3453,26.3485,68.6635,0,28.3455-6.8326,50.1808-6.8277,21.8173-17.6595,35.0016a93.2,93.2,0,0,1-27.0083,22.155,134.9257,134.9257,0,0,1-31.3245,13.0054,228.0511,228.0511,0,0,1-34.1835,6.0143q17.3218,14.982,17.3423,47.327v79.6694a21.374,21.374,0,0,0,1.657,9.17,9.2191,9.2191,0,0,0,5.3342,4.833,29.59,29.59,0,0,0,6.51,1.6568,74.7491,74.7491,0,0,0,8.1521.3428h74.6779q39.6759,0,67.82-28.1693Q512,455.662,512,415.9857V95.9887q0-39.6454-28.169-67.8248Zm0,0" transform="translate(0 0.0001)" fill="#0fa"/><path d="M101.323,372.6784c-1.5343,1.1-1.3144,2.8743.68,5.3137,2.22,2.2348,3.9994,2.5571,5.3342.9972,1.56-1.0994,1.34-2.8741-.68-5.3342-2.2146-2-3.9944-2.3166-5.3342-.9767Zm0,0" transform="translate(0 0.0001)" fill="#0fa"/><path d="M90.3375,364.3269q-.9894,2.34,2.3372,4.0147c1.78,1.0995,3.217.88,4.337-.68q.99-2.309-2.3373-3.9942c-2.22-.68-3.6772-.44-4.3369.66Zm0,0" transform="translate(0 0.0001)" fill="#0fa"/><path d="M111.674,385.6634c-2,1.12-2,3.1145,0,6.0143,2,2.8743,3.8765,3.6515,5.6514,2.3168,2.02-1.56,2.02-3.6567,0-6.3366-1.7542-2.8741-3.6516-3.5543-5.6514-1.9945Zm0,0" transform="translate(0 0.0001)" fill="#0fa"/><path d="M123.34,400.6634c-1.9946,1.78-1.56,3.8765,1.34,6.3366,2.6545,2.6543,4.874,2.9969,6.6537.9971,1.7745-1.78,1.3349-3.8766-1.32-6.3313-2.68-2.6593-4.8943-2.9969-6.674-1.0024Zm0,0" transform="translate(0 0.0001)" fill="#0fa"/></svg>