<svg xmlns="http://www.w3.org/2000/svg" width="512" height="512" viewBox="0 0 512 512"><title>stroke</title><rect y="0.0001" width="512" height="512" fill="#f0f"/><path d="M474.9313,37.0637Q447.87,10.0024,409.7608,10H102.2441Q64.1474,10,37.0686,37.0637,10,64.1327,10,102.2391V409.7558q0,38.1265,27.0686,65.1754Q64.1376,502,102.2441,502H174a88.3383,88.3383,0,0,0,10.5759-.4621c2.3443-.3243,4.6885-1.7249,7.0475-4.1821q3.5162-3.6858,3.5138-10.7331,0-.9511-.1524-21.7711-.1768-20.8174-.177-33l-7.3717,1.2876a96.0562,96.0562,0,0,1-17.7754,1.1155,136.5041,136.5041,0,0,1-22.2477-2.2459,49.8777,49.8777,0,0,1-21.4614-9.5979,40.6083,40.6083,0,0,1-14.09-19.6971l-3.2092-7.3717a78.7987,78.7987,0,0,0-10.0942-16.3357q-6.8852-8.9862-13.9177-12.173L82.39,365.2212a23.235,23.235,0,0,1-4.1624-3.8383,17.3845,17.3845,0,0,1-2.88-4.4918c-.6538-1.499-.1179-2.7274,1.5922-3.6858,1.71-.9632,4.8015-1.44,9.2933-1.44l6.4084.9583c4.2657.8649,9.5439,3.4156,15.8588,7.6961a51.6678,51.6678,0,0,1,15.53,16.645q7.3714,13.1294,17.7755,20.0215,10.3941,6.8853,20.9846,6.8951a91.5063,91.5063,0,0,0,18.2573-1.5973,63.2336,63.2336,0,0,0,14.4142-4.816q2.8822-21.4517,15.6868-32.9809a218.4024,218.4024,0,0,1-32.8285-5.7794,129.481,129.481,0,0,1-30.101-12.4974A86.2073,86.2073,0,0,1,122.418,324.849q-10.2542-12.8121-16.8172-33.6346-6.5683-20.8175-6.5657-48.0485,0-38.76,25.324-65.9813-11.8681-29.14,2.2263-65.3476,9.2956-2.8751,27.5454,4.32,18.26,7.2312,26.7592,12.345,8.5,5.1232,13.6131,8.64a231.5649,231.5649,0,0,1,122.9939,0L329.67,129.46a171.64,171.64,0,0,1,29.4867-14.09q16.962-6.4208,25.9334-3.5335,14.4264,36.195,2.5556,65.3476,25.307,27.2382,25.3193,65.9813,0,27.2382-6.5657,48.2207-6.5608,20.9649-16.97,33.6343a89.5585,89.5585,0,0,1-25.9532,21.29,129.6562,129.6562,0,0,1-30.1009,12.4974,219.14,219.14,0,0,1-32.8482,5.7794q16.6452,14.3967,16.6648,45.4783v76.5573a20.5385,20.5385,0,0,0,1.5923,8.8116,8.8587,8.8587,0,0,0,5.1258,4.6442,28.4388,28.4388,0,0,0,6.2561,1.5921A71.8287,71.8287,0,0,0,338,502h71.7608q38.1262,0,65.1705-27.0689Q502,447.8627,502,409.7363V102.2391q0-38.0968-27.0687-65.1754Zm0,0" transform="translate(0 0.0001)" fill="none" stroke="#0fa" stroke-linecap="round" stroke-linejoin="round" stroke-width="20"/></svg>