<svg xmlns="http://www.w3.org/2000/svg" width="512" height="512" viewBox="0 0 512 512"><title>fill</title><rect width="512" height="512" fill="#f0f"/><path d="M189.2929,416.0922a38.3767,38.3767,0,1,0,38.3748,38.3785,38.4222,38.4222,0,0,0-38.3748-38.3785Z" transform="translate(0 0)" fill="#0fa"/><path d="M391.182,373.1869H183.593a72.8855,72.8855,0,0,1-71.9242-60.45c-.0139-.0786-.0264-.1573-.0384-.2368L81.7627,111.9532a9.44,9.44,0,0,1,.26-4,9.4528,9.4528,0,0,1-.9252-2.8194L70.2557,38.1014H9.4735a9.4735,9.4735,0,1,1,0-18.9469H78.32a9.4728,9.4728,0,0,1,9.3518,7.9608L98.5133,94.1474H489.9a22.5642,22.5642,0,0,1,17.73,8.8324c.0731.0953.1434.1919.2119.29a22.6868,22.6868,0,0,1,3.3129,19.2291l-49.97,198.312c-.0352.1388-.074.2766-.1147.4145a72.9892,72.9892,0,0,1-69.8889,51.9615Z" transform="translate(0 0)" fill="#0fa"/><path d="M381.1577,416.0922a38.3767,38.3767,0,1,0,38.3736,38.3785,38.4228,38.4228,0,0,0-38.3736-38.3785Z" transform="translate(0 0)" fill="#0fa"/></svg>