<svg xmlns="http://www.w3.org/2000/svg" width="515" height="512" viewBox="0 0 515 512"><title>fill</title><rect x="1.5" width="512" height="512" fill="#f0f"/><path d="M333.1773,151.9012l.0011.0016a15.1021,15.1021,0,0,0,21.3557-.0005L452.98,53.436a15.103,15.103,0,0,0-21.3568-21.361L333.18,130.54A15.1251,15.1251,0,0,0,333.1773,151.9012Z" transform="translate(1.5 0)" fill="#0fa"/><path d="M359.95,178.2576l.0022.0027a15.1034,15.1034,0,0,0,21.3557-.0016l98.4434-98.4674A15.103,15.103,0,0,0,458.3944,58.43L359.951,156.8978A15.1278,15.1278,0,0,0,359.95,178.2576Z" transform="translate(1.5 0)" fill="#0fa"/><path d="M386.88,232.639,509.0861,110.4033a15.103,15.103,0,0,0-21.3568-21.3609L365.5257,211.277a44.7925,44.7925,0,0,1-50.9031,8.74,15.1736,15.1736,0,0,0-17.8013,3.604l-41.4237,46.6823c-.0547.057-.11.115-.162.1763L75.7473,472.7524l-.2256.2606c-.4917.5783-.9538,1.0832-1.41,1.54a24.7842,24.7842,0,1,1-35.0278-35.0725c.4337-.4359.9319-.8927,1.5243-1.3965h-.0011l112.4439-99.8211a15.1065,15.1065,0,0,0-9.1279-26.3751,14.9643,14.9643,0,0,0-10.9214,3.7831L20.9614,415.14c-1.187,1.0132-2.2524,1.9956-3.2511,2.9978a54.989,54.989,0,0,0,77.7458,77.7866c1.0183-1.0164,2.0016-2.0832,2.9346-3.18L230.9573,343.35,363.4528,492.662c1.0184,1.195,2.0006,2.2618,2.9959,3.2541a54.99,54.99,0,0,0,77.771-77.7637c-.9932-.9967-2.0466-1.9693-3.2215-2.9714L287.8609,279.2249l24.633-27.76A75.3154,75.3154,0,0,0,386.88,232.639Z" transform="translate(1.5 0)" fill="#0fa"/><path d="M188.7836,291.4831l.0055.0011a28.5755,28.5755,0,0,0,3.11.5367,15.0746,15.0746,0,0,0,16.6132-2.3165l81.4239-72.973a15.1824,15.1824,0,0,0,3.6025-17.8062,44.8114,44.8114,0,0,1,8.737-50.9117L424.4813,25.7767A15.103,15.103,0,0,0,403.1245,4.4158L280.9209,126.6521a75.3627,75.3627,0,0,0-18.8252,74.4061l-28.62,25.4085L47.8479,22.997A28.2062,28.2062,0,0,0,7.9824,21.1821,29.3046,29.3046,0,0,0,1.5088,55.6878L72.99,199.8551A172.47,172.47,0,0,0,188.7836,291.4831Z" transform="translate(1.5 0)" fill="#0fa"/></svg>