<svg xmlns="http://www.w3.org/2000/svg" width="512" height="512" viewBox="0 0 512 512"><title>stroke</title><rect width="512" height="512" fill="#f0f"/><path d="M417.0008,10,302.9776,127.7327S256,167.3242,280.1729,205.8739l-78.78,70.848s-41.463-6.2513-71.5237-35.424S10.6634,46.4659,10.6634,46.4659s-4.1463-14.6666,8.2926-21.92,19.6949,5.25,19.6949,5.25L206.5761,220.46" transform="translate(0 0)" fill="none" stroke="#0fa" stroke-linecap="round" stroke-linejoin="round" stroke-width="20"/><path d="M502,96.4762,383.83,216.2927s-31.26,37.325-75.67,20.8377L82.1871,491.35s-28.3763,23.9633-55.7159,0,0-57.3035,0-57.3035L143.345,329.8579" transform="translate(0 0)" fill="none" stroke="#0fa" stroke-linecap="round" stroke-linejoin="round" stroke-width="20"/><path d="M279.1364,282.9732,438.7689,429.8786s24.8778,25.6563,0,57.3035-55.7216,0-55.7216,0L241.82,334.1774" transform="translate(0 0)" fill="none" stroke="#0fa" stroke-linecap="round" stroke-linejoin="round" stroke-width="20"/><line x1="472.9759" y1="65.2198" x2="372.4281" y2="167.3242" fill="none" stroke="#0fa" stroke-linecap="round" stroke-linejoin="round" stroke-width="20"/><line x1="446.9986" y1="38.726" x2="346.4508" y2="140.8305" fill="none" stroke="#0fa" stroke-linecap="round" stroke-linejoin="round" stroke-width="20"/></svg>