<svg xmlns="http://www.w3.org/2000/svg" width="512" height="512" viewBox="0 0 512 512"><title>fill</title><rect width="512" height="512" fill="#f0f"/><path d="M256.0275,225.4608c-60.6521,0-168.8284,88.2139-168.8284,197.1914,0,108.8113,75.5085,28.1943,168.8284,28.1943,93.151,0,168.8283,80.617,168.8283-28.1943,0-108.9775-108.3025-197.1914-168.8283-197.1914Z" transform="translate(0 0)" fill="#0fa"/><path d="M319.1694,191.8219c31.529,8.3994,66.6454-20.1324,78.3371-63.6482,11.5217-43.6844-4.4735-85.89-35.9613-94.291-31.4853-8.3981-66.6016,20.0925-78.2933,63.6494-11.523,43.6832,4.4309,85.89,35.9175,94.29Z" transform="translate(0 0)" fill="#0fa"/><path d="M192.7168,191.8219c31.4866-8.3995,47.6517-50.6066,35.96-94.121C216.9851,53.9752,181.87,25.4846,150.341,33.8827c-31.4866,8.4008-47.6092,50.6066-35.9188,94.291s46.808,72.2163,78.2946,63.6482Z" transform="translate(0 0)" fill="#0fa"/><path d="M103.3655,206.51c-20.0911-34.6514-56.5586-51.1115-81.5869-36.5925-25.0707,14.4765-29.0393,54.2363-9.0743,88.8451,19.9211,34.61,56.5573,51.114,81.4168,36.5938,25.0721-14.519,29.208-54.235,9.2444-88.8464Z" transform="translate(0 0)" fill="#0fa"/><path d="M490.15,169.9171c-25.0283-14.519-61.4958,1.7724-81.4169,36.425-19.9636,34.6089-15.9964,74.4949,9.0331,89.0139,25.0708,14.35,61.4945-1.9836,81.4581-36.5938,20.1337-34.6088,15.9977-74.5373-9.0743-88.8451Z" transform="translate(0 0)" fill="#0fa"/></svg>