<svg xmlns="http://www.w3.org/2000/svg" width="512" height="512" viewBox="0 0 512 512"><title>fill</title><rect x="0.0002" y="0.0002" width="512" height="512" fill="#f0f"/><circle cx="256.0002" cy="256.0003" r="81.3558" fill="#0fa"/><path d="M455.74,101.1825a6.4812,6.4812,0,0,0-.6653-8.3956L419.5489,57.2627a6.3156,6.3156,0,0,0-4.6536-1.98,5.8431,5.8431,0,0,0-3.6335,1.15L378.82,79.5375a29.92,29.92,0,0,1-31.3273,2.1589,195.2724,195.2724,0,0,0-33.5922-13.83,29.8869,29.8869,0,0,1-20.8814-23.7287l-6.5074-38.584A6.6279,6.6279,0,0,0,279.9577,0h-50.053a6.6157,6.6157,0,0,0-6.5514,5.53l-6.758,39.6137a29.9585,29.9585,0,0,1-20.5265,23.5788A191.59,191.59,0,0,0,163.9014,82.28a29.8162,29.8162,0,0,1-31.678-2.1256L100.2721,57.1552a6.2854,6.2854,0,0,0-3.7637-1.1573A6.1225,6.1225,0,0,0,92.07,57.7553l-.2468.2532L56.2758,93.4347a6.5962,6.5962,0,0,0-.7,8.5079l23.2585,32.6767a29.92,29.92,0,0,1,2.187,31.2461,193.2643,193.2643,0,0,0-13.169,32.39,29.8725,29.8725,0,0,1-23.7362,20.8468L5.5549,225.61A6.6278,6.6278,0,0,0,0,232.1633V282.216a6.622,6.622,0,0,0,5.5355,6.5529l39.607,6.7521a29.9444,29.9444,0,0,1,23.5731,20.5115A191.695,191.695,0,0,0,82.2806,348.22a29.8541,29.8541,0,0,1-2.1319,31.6831L57.2832,411.71a6.4512,6.4512,0,0,0,.7108,8.3337l35.5292,35.5252a6.31,6.31,0,0,0,4.6547,1.9788,5.8609,5.8609,0,0,0,3.6393-1.1546l32.8035-23.3463a29.8637,29.8637,0,0,1,17.4015-5.5763,30.1979,30.1979,0,0,1,13.8411,3.3867,196.4882,196.4882,0,0,0,31.3591,12.8866,29.9,29.9,0,0,1,20.5806,23.7117l6.5068,39.0422A6.6038,6.6038,0,0,0,230.8549,512h50.1674a6.6167,6.6167,0,0,0,6.553-5.5318l6.6355-39.1131a29.8786,29.8786,0,0,1,20.6229-23.627,197.8827,197.8827,0,0,0,32.3931-13.411,29.8694,29.8694,0,0,1,31.429,2.2023l32.1558,22.983a6.4207,6.4207,0,0,0,3.8432,1.2161,6.3192,6.3192,0,0,0,4.6557-1.982l35.4259-35.4246a6.62,6.62,0,0,0,.732-8.5434L432.461,378.457a29.87,29.87,0,0,1-2.1791-31.288,196.0478,196.0478,0,0,0,13.4058-32.3176A29.8962,29.8962,0,0,1,467.45,294.0782l39.0466-6.5063a6.6037,6.6037,0,0,0,5.5011-6.5466l.001-50.4552a6.1175,6.1175,0,0,0-5.2277-6.1372l-.1165-.02-39.0573-6.6276a29.8831,29.8831,0,0,1-23.626-20.6122,197.6747,197.6747,0,0,0-13.4143-32.3981,29.8946,29.8946,0,0,1,2.1579-31.3786ZM256,376.4062A120.4062,120.4062,0,1,1,376.4069,256,120.5427,120.5427,0,0,1,256,376.4062Z" transform="translate(0.0002 0.0002)" fill="#0fa"/></svg>