<svg xmlns="http://www.w3.org/2000/svg" width="512" height="512" viewBox="0 0 512 512"><title>fill</title><rect width="512" height="512" fill="#f0f"/><path d="M245.146,270.9c-74.1924,0-134.5527-60.7627-134.5527-135.45S170.9536,0,245.146,0,379.6987,60.7627,379.6987,135.45,319.3384,270.9,245.146,270.9Z" transform="translate(0 0)" fill="#0fa"/><path d="M470.3675,495.1924a15.5694,15.5694,0,0,1-20.124,1.6592l-13.7686-9.8408c-.084-.0606-.0908-.0606-.166-.0215a97.6359,97.6359,0,0,1-16,6.626c-.0859.0273-.0879.0381-.0977.0986L417.36,510.5176c-.0844.5043-.1961.9975-.3262,1.4824H469.438a10.0005,10.0005,0,0,0,10-10q0-7.65-.6768-15.2013Z" transform="translate(0 0)" fill="#0fa"/><path d="M365.0394,510.5079,362.2435,493.73c-.0137-.081-.0215-.09-.0957-.1132a97.1267,97.1267,0,0,1-15.5049-6.378L339.11,476.8594l7.3965,10.3926-14.085,10.0244a15.29,15.29,0,0,1-8.96,2.8584,15.4821,15.4821,0,0,1-11.0253-4.5937l-15.2481-15.2452a15.4548,15.4548,0,0,1-1.68-19.9931l9.8545-13.708,11.2732-6.1581L305.3812,446.44a94.9925,94.9925,0,0,1-6.7295-15.9687c-.02-.06-.0381-.0762-.1123-.0889l-17-2.8975a15.5535,15.5535,0,0,1-12.9883-15.3877V390.6045a15.5661,15.5661,0,0,1,13.0273-15.3935l16.5489-2.792c.082-.0137.0879-.0147.1152-.1045a95.8435,95.8435,0,0,1,6.5273-16.0459c.0323-.0615.043-.082-.0117-.1592l-9.98-14.02a15.5494,15.5494,0,0,1,1.6679-20.0664l11.1576-11.1207a276.1563,276.1563,0,0,0-62.4572-7.0776c-62.2573,0-120.8647,20.4043-165.0259,57.4541C35.4531,398.7529,10.854,448.73,10.854,502a10,10,0,0,0,10,10H365.369C365.2377,511.512,365.1246,511.0156,365.0394,510.5079Z" transform="translate(0 0)" fill="#0fa"/><circle cx="391.2264" cy="400.8398" r="34.932" fill="#0fa"/><path d="M476.9893,334.3652a2.7828,2.7828,0,0,0-.2856-3.6048L461.45,315.5072a2.7116,2.7116,0,0,0-1.9982-.85,2.5086,2.5086,0,0,0-1.56.4937l-13.93,9.9208a12.8466,12.8466,0,0,1-13.4512.927,83.84,83.84,0,0,0-14.4236-5.9382,12.8327,12.8327,0,0,1-8.9659-10.1885l-2.7941-16.5669a2.8459,2.8459,0,0,0-2.8142-2.3848H380.0217a2.8407,2.8407,0,0,0-2.813,2.3743l-2.9017,17.0091a12.8633,12.8633,0,0,1-8.8135,10.1241,82.2688,82.2688,0,0,0-13.8119,5.8215,12.8024,12.8024,0,0,1-13.6017-.9126l-13.719-9.8753a2.6988,2.6988,0,0,0-1.6161-.497,2.629,2.629,0,0,0-1.9056.7546l-.106.1087L305.47,331.0385a2.8322,2.8322,0,0,0-.3,3.6531l9.9866,14.0305a12.8468,12.8468,0,0,1,.939,13.4163,82.9754,82.9754,0,0,0-5.6544,13.9075,12.8267,12.8267,0,0,1-10.1917,8.9511l-16.5573,2.7941a2.8458,2.8458,0,0,0-2.3852,2.8139v21.4913a2.8434,2.8434,0,0,0,2.3767,2.8137l17.0063,2.8991a12.8573,12.8573,0,0,1,10.1216,8.8071,82.3079,82.3079,0,0,0,5.8246,13.82,12.8187,12.8187,0,0,1-.9154,13.6039l-9.8178,13.6572a2.77,2.77,0,0,0,.3052,3.5782L321.463,486.53a2.71,2.71,0,0,0,1.9986.85,2.5169,2.5169,0,0,0,1.5627-.4958l14.0849-10.0243a12.8227,12.8227,0,0,1,7.4718-2.3943,12.9675,12.9675,0,0,1,5.943,1.4541,84.3677,84.3677,0,0,0,13.4648,5.5332,12.8383,12.8383,0,0,1,8.8367,10.1812l2.7939,16.7637a2.8355,2.8355,0,0,0,2.81,2.3624H401.97a2.8409,2.8409,0,0,0,2.8136-2.3751l2.8492-16.7942a12.8289,12.8289,0,0,1,8.8549-10.1448,84.9636,84.9636,0,0,0,13.9087-5.7583,12.8251,12.8251,0,0,1,13.4949.9456l13.8068,9.8683a2.7569,2.7569,0,0,0,1.65.5221,2.713,2.713,0,0,0,1.999-.851l15.211-15.21a2.8426,2.8426,0,0,0,.3143-3.6683L466.9941,453.42a12.8252,12.8252,0,0,1-.9356-13.4343,84.1792,84.1792,0,0,0,5.756-13.8763,12.8369,12.8369,0,0,1,10.2031-8.92l16.7656-2.7936a2.8355,2.8355,0,0,0,2.362-2.8109l0-21.6642a2.6266,2.6266,0,0,0-2.2447-2.6351l-.05-.0085-16.77-2.8457a12.8312,12.8312,0,0,1-10.1444-8.85,84.8678,84.8678,0,0,0-5.76-13.9109,12.8362,12.8362,0,0,1,.9265-13.4732ZM391.2264,452.5391a51.6993,51.6993,0,1,1,51.7-51.6993A51.7578,51.7578,0,0,1,391.2264,452.5391Z" transform="translate(0 0)" fill="#0fa"/></svg>