<svg xmlns="http://www.w3.org/2000/svg" width="512" height="512" viewBox="0 0 512 512"><title>stroke</title><rect width="512" height="512" fill="#f0f"/><ellipse cx="245.3567" cy="135.9403" rx="124.0464" ry="124.9403" fill="none" stroke="#0fa" stroke-linecap="round" stroke-miterlimit="10" stroke-width="20"/><path d="M490.0231,409.2642a6.5707,6.5707,0,0,1-5.4906,6.501l-14.7191,2.4529a7.1972,7.1972,0,0,0-5.7221,5.0023,78.0332,78.0332,0,0,1-5.3339,12.8657,7.1934,7.1934,0,0,0,.5252,7.5336l8.6739,12.1808a6.5741,6.5741,0,0,1-.7162,8.4829l-13.3544,13.354a6.56,6.56,0,0,1-8.4723.7237l-12.1286-8.669a7.1926,7.1926,0,0,0-7.5665-.5288,78.6545,78.6545,0,0,1-12.8835,5.3344,7.1971,7.1971,0,0,0-4.9655,5.6887l-2.5,14.7351a6.571,6.571,0,0,1-6.5028,5.4991H379.9558a6.5693,6.5693,0,0,1-6.5-5.4907l-2.4533-14.719a7.1986,7.1986,0,0,0-4.9552-5.71,78.128,78.128,0,0,1-12.4727-5.1274,7.2043,7.2043,0,0,0-7.5233.527l-12.3459,8.7869a6.3089,6.3089,0,0,1-3.7623,1.2066,6.4458,6.4458,0,0,1-4.6459-1.9437l-13.3784-13.3771a6.52,6.52,0,0,1-.7113-8.434l8.6218-11.9933a7.1865,7.1865,0,0,0,.5132-7.6289A76.3429,76.3429,0,0,1,314.94,423.7a7.2116,7.2116,0,0,0-5.6767-4.9413l-14.9207-2.5437a6.5732,6.5732,0,0,1-5.4977-6.5023V390.8451a6.5733,6.5733,0,0,1,5.5026-6.5023l14.5384-2.4533a7.1906,7.1906,0,0,0,5.7149-5.021,76.9733,76.9733,0,0,1,5.2454-12.8987,7.202,7.202,0,0,0-.5266-7.5233L310.5532,344.13a6.5687,6.5687,0,0,1,.7077-8.4758l13.4-13.354.0485-.0508a6.3929,6.3929,0,0,1,4.604-1.9,6.4656,6.4656,0,0,1,3.8077,1.2067l12.045,8.67a7.182,7.182,0,0,0,7.6275.5114,76.3211,76.3211,0,0,1,12.8119-5.4,7.211,7.211,0,0,0,4.9445-5.6785l2.5454-14.9207a6.5708,6.5708,0,0,1,6.5023-5.4977h18.8678a6.573,6.573,0,0,1,6.5023,5.5026l2.4533,14.5437A7.1937,7.1937,0,0,0,412.449,325a77.6925,77.6925,0,0,1,13.3665,5.5008,7.2016,7.2016,0,0,0,7.5443-.52l12.2083-8.6948A6.3012,6.3012,0,0,1,449.33,320.08a6.45,6.45,0,0,1,4.6459,1.9442l13.3767,13.3767a6.5221,6.5221,0,0,1,.7009,8.4482l-8.6774,12.1407a7.1993,7.1993,0,0,0-.52,7.5562,78.5948,78.5948,0,0,1,5.3358,12.8849,7.1965,7.1965,0,0,0,5.6887,4.9636l14.7226,2.4983.0124.0018a6.4036,6.4036,0,0,1,5.407,6.4088Z" transform="translate(0 0)" fill="none" stroke="#0fa" stroke-linecap="round" stroke-miterlimit="10" stroke-width="20"/><circle cx="389.4343" cy="399.8306" r="41.2989" fill="none" stroke="#0fa" stroke-miterlimit="10" stroke-width="20"/><path d="M290.5648,317.4317a266.0148,266.0148,0,0,0-45.2081-3.8421c-123.37,0-223.38,83.9065-223.38,187.41" transform="translate(0 0)" fill="none" stroke="#0fa" stroke-linecap="round" stroke-miterlimit="10" stroke-width="20"/></svg>