<svg xmlns="http://www.w3.org/2000/svg" width="512" height="512" viewBox="0 0 512 512"><title>fill</title><rect width="512" height="512" fill="#f0f"/><path d="M463.9834,358.4717a7.7973,7.7973,0,0,0,7.7558-8.5472C461.052,238.7023,368.6452,151.7763,256.2144,151.7763S51.3767,238.7023,40.69,349.9245a7.7974,7.7974,0,0,0,7.7559,8.5472Z" transform="translate(0 0)" fill="#0fa"/><rect y="375.8782" width="512" height="36.3291" rx="7.1659" fill="#0fa"/><path d="M245.8886,137.2771a16.8328,16.8328,0,0,1-18.3871-12.7027c-1.6932-7.2729-1.3437-15.4821,6.1766-20.295,14.3022-9.1534,39.2972-1.7077,43.8358-.239.3866.1251.7679.24,1.1625.3366,2.6529.6513,15.9536,4.9379,6.6621,23.8313a16.745,16.745,0,0,1-17.1606,9.2086A93.0856,93.0856,0,0,0,245.8886,137.2771Z" transform="translate(0 0)" fill="#0fa"/></svg>