<svg xmlns="http://www.w3.org/2000/svg" width="512" height="513.1489" viewBox="0 0 512 513.1489"><title>stroke</title><rect y="1.1489" width="512" height="512" fill="#f0f"/><path d="M302.1566,302.1873" transform="translate(0 1.1489)" fill="#0fa"/><path d="M56.3531,500.8511V54.987S58.5354,8.8511,102.489,8.8511H409.858s45.874,3.0553,45.874,45.874V134.208H365.3807V500.8511H56.3531" transform="translate(0 1.1489)" fill="none" stroke="#0fa" stroke-linecap="round" stroke-linejoin="round" stroke-width="20"/><path d="M365.3807,144.6836V54.987S364.3332,8.8511,398.9024,8.8511" transform="translate(0 1.1489)" fill="none" stroke="#0fa" stroke-linecap="round" stroke-linejoin="round" stroke-width="20"/><polygon points="178.917 71.675 178.917 145.833 209.841 129.072 240.613 145.833 240.613 71.522 302.004 71.522 302.004 256 117.678 256 117.678 71.675 178.917 71.675" fill="none" stroke="#0fa" stroke-linecap="round" stroke-linejoin="round" stroke-width="20"/><line x1="301.953" y1="318.7221" x2="117.6275" y2="318.7221" fill="none" stroke="#0fa" stroke-linecap="round" stroke-linejoin="round" stroke-width="20"/><line x1="301.953" y1="380.2658" x2="117.6275" y2="380.2658" fill="none" stroke="#0fa" stroke-linecap="round" stroke-linejoin="round" stroke-width="20"/><line x1="301.953" y1="441.8094" x2="117.6275" y2="441.8094" fill="none" stroke="#0fa" stroke-linecap="round" stroke-linejoin="round" stroke-width="20"/></svg>