<svg xmlns="http://www.w3.org/2000/svg" width="512" height="512" viewBox="0 0 512 512"><title>fill</title><rect width="512" height="512" fill="#f0f"/><path d="M434.7579,77.2744H77.2421A77.2421,77.2421,0,0,0,0,154.5165v202.967a77.2421,77.2421,0,0,0,77.2421,77.2421H434.7579A77.2421,77.2421,0,0,0,512,357.4835V154.5165A77.2421,77.2421,0,0,0,434.7579,77.2744ZM346.9208,264.8787,217.78,344.6632a10.4334,10.4334,0,0,1-15.9186-8.8768V173.908c2.5378-7.8289,10.425-9.9637,15.9186-6.5707l129.14,79.7887a10.4316,10.4316,0,0,1,0,17.7527Z" transform="translate(0 0)" fill="#0fa"/></svg>