<svg xmlns="http://www.w3.org/2000/svg" width="512" height="512" viewBox="0 0 512 512"><title>stroke</title><rect width="512" height="512" fill="#f0f"/><path d="M427.7752,84.2558H84.2248A74.2249,74.2249,0,0,0,10,158.4807V353.5193a74.2249,74.2249,0,0,0,74.2248,74.2249h343.55A74.2249,74.2249,0,0,0,502,353.5193V158.4807A74.2249,74.2249,0,0,0,427.7752,84.2558Zm-84.406,180.2761L219.2732,341.2a10.0258,10.0258,0,0,1-15.2967-8.53V177.1147c2.4387-7.5231,10.0177-9.5745,15.2967-6.314l124.096,76.6719a10.0242,10.0242,0,0,1,0,17.0593Z" transform="translate(0 0)" fill="none" stroke="#0fa" stroke-miterlimit="10" stroke-width="20"/></svg>