<svg xmlns="http://www.w3.org/2000/svg" width="512" height="512" viewBox="0 0 512 512"><title>fill</title><rect width="512" height="512" fill="#f0f"/><path d="M89.5992,287.1944H55.7372L29.3748,88.8277A14.7509,14.7509,0,1,0,.13,92.7143L30.908,324.3052v96.927a14.751,14.751,0,0,0,29.5019,0V323.3294a14.7084,14.7084,0,0,0-.1287-1.9437l-.6232-4.6894H89.5992a14.751,14.751,0,0,0,0-29.5019Z" transform="translate(0 0)" fill="#0fa"/><path d="M499.19,76.1487a14.7464,14.7464,0,0,0-16.5651,12.679l-26.362,198.3667H422.4007a14.751,14.751,0,0,0,0,29.5019h29.9417l-.6232,4.6894a14.7768,14.7768,0,0,0-.1287,1.9437v97.9028a14.751,14.751,0,0,0,29.5019,0v-96.927L511.87,92.7143A14.75,14.75,0,0,0,499.19,76.1487Z" transform="translate(0 0)" fill="#0fa"/><path d="M143.8924,433.0749V245.9941a2.9024,2.9024,0,0,1,4.5841-2.3655l114.19,81.1788a2.9024,2.9024,0,0,1-.1124,4.8071l-36.8447,23.68a2.9036,2.9036,0,0,0-.5479.4562l-76.2493,81.31A2.9024,2.9024,0,0,1,143.8924,433.0749Z" transform="translate(0 0)" fill="#0fa"/><path d="M375.62,201.6564v231.627a2.6714,2.6714,0,0,1-4.9562,1.406L300.1932,318.5777a2.6877,2.6877,0,0,0-.6964-.7645L145.7893,203.8269a2.6982,2.6982,0,0,1,1.5853-4.8655h225.571A2.6848,2.6848,0,0,1,375.62,201.6564Z" transform="translate(0 0)" fill="#0fa"/></svg>