<svg xmlns="http://www.w3.org/2000/svg" width="512" height="512" viewBox="0 0 512 512"><title>fill</title><rect width="512" height="512" fill="#f0f"/><path d="M484.6172,110.4043H27.3828A27.4136,27.4136,0,0,1,0,83.0215V27.3828A27.4136,27.4136,0,0,1,27.3828,0H484.6172A27.4139,27.4139,0,0,1,512,27.3828V83.0215A27.4139,27.4139,0,0,1,484.6172,110.4043Z" transform="translate(0 0)" fill="#0fa"/><path d="M484.6172,512H27.3828A27.4139,27.4139,0,0,1,0,484.6172V428.9785a27.4139,27.4139,0,0,1,27.3828-27.3828H484.6172A27.4142,27.4142,0,0,1,512,428.9785v55.6387A27.4142,27.4142,0,0,1,484.6172,512Z" transform="translate(0 0)" fill="#0fa"/><path d="M484.6172,311.2021H27.3828A27.4138,27.4138,0,0,1,0,283.8193V228.1807a27.4135,27.4135,0,0,1,27.3828-27.3828H484.6172A27.4138,27.4138,0,0,1,512,228.1807v55.6386A27.4142,27.4142,0,0,1,484.6172,311.2021Z" transform="translate(0 0)" fill="#0fa"/></svg>