<svg xmlns="http://www.w3.org/2000/svg" width="512" height="512" viewBox="0 0 512 512"><title>fill</title><rect width="512" height="512" fill="#f0f"/><path d="M480.1817,217.2009H361.1628a48.63,48.63,0,0,1-41.0355-22.3187,49.7369,49.7369,0,0,1-3.4131-47.6807,183.2943,183.2943,0,0,0,16.068-67.5765c0-48.3179-16.5471-75.8417-47.8373-79.5528A7.279,7.279,0,0,0,283.6966,0a9.8483,9.8483,0,0,0-6.5854,2.5059,9.6918,9.6918,0,0,0-3.2858,7.3484V59.97c0,36.6288-40.7913,93.7861-75.02,135.2959a58.9549,58.9549,0,0,0-13.4225,37.45V443.212A68.87,68.87,0,0,0,254.1707,512H411.3938a29.4822,29.4822,0,0,0,0-58.9644h-39.302a9.8274,9.8274,0,1,1,0-19.6548h68.78a29.4784,29.4784,0,1,0,0-58.9568H411.3938a9.8274,9.8274,0,0,1,0-19.6548h49.1331a29.4784,29.4784,0,1,0,0-58.9568H421.225a9.8274,9.8274,0,1,1,0-19.6547h58.9567a29.4784,29.4784,0,1,0,0-58.9568Z" transform="translate(0 0)" fill="#0fa"/><path d="M80.9979,446.8939a9.8275,9.8275,0,1,0,9.8236,9.8313A9.8262,9.8262,0,0,0,80.9979,446.8939Z" transform="translate(0 0)" fill="#0fa"/><path d="M130.1311,217.2009H31.8648A29.4741,29.4741,0,0,0,2.3864,246.6793c0,.3107-.0183.6171-.0466.92.0283.3034.0466.61.0466.9206V482.514A29.4806,29.4806,0,0,0,31.8648,512h98.2663a29.4806,29.4806,0,0,0,29.4783-29.486V246.6793A29.4741,29.4741,0,0,0,130.1311,217.2009ZM80.9979,486.2035a29.4822,29.4822,0,1,1,29.4784-29.4783A29.4789,29.4789,0,0,1,80.9979,486.2035Z" transform="translate(0 0)" fill="#0fa"/></svg>